<?xml version="1.0" encoding="UTF-8"?>
<!DOCTYPE svg PUBLIC "-//W3C//DTD SVG 1.1//EN" "http://www.w3.org/Graphics/SVG/1.1/DTD/svg11.dtd">
<svg enable_background="new 0 0 1000 628" height="628px" style="stroke-linejoin: round; stroke:#000; fill: none;" version="1.1" viewBox="0 0 1000 628" width="1000px" xmlns="http://www.w3.org/2000/svg" xmlns:xlink="http://www.w3.org/1999/xlink"><defs>

<style type="text/css">
type="text/css"&gt;path { fill-rule: evenodd; }
#land path { fill: #f00; stroke: #bbb; }
</style>

</defs><metadata><views><view h="628.605365988" padding="0" w="1000"><proj dist="1.3" id="satellite" lat0="4.047486" lon0="9.706374" tilt="5" up="0"/><bbox h="7.48" w="11.92" x="994.71" y="996.49"/></view></views></metadata><g class="" id="douala-arrts"><path data-id="Douala-III" d="M506.690135,291.536491L587.278576,313.926407L657.900401,299.656969L686.108179,302.694255L724.156709,289.873156L787.754227,213.475390L801.614729,137.885949L816.898177,133.057563L820.877944,131.493223L837.061136,116.245578L849.966149,119.459539L854.126609,115.436134L849.038548,104.361944L854.697722,96.565039L854.301021,90.537798L856.391922,83.592580L855.797530,69.226412L863.815947,72.040481L883.262140,87.897647L883.262214,108.276212L883.262222,111.294947L883.262237,114.313605L882.514319,117.332855L881.018515,118.843420L877.279219,121.865026L875.035763,124.130558L872.044638,125.642060L869.053686,126.399003L866.062880,126.401435L863.072260,127.158306L859.334197,127.161317L856.343635,128.671037L852.604834,130.932855L850.361590,132.441002L847.370808,134.704119L845.876508,137.724039L845.878603,141.500190L846.635241,144.537820L849.622562,146.793831L853.357368,149.048547L856.345749,150.550876L859.334689,152.053456L861.576777,153.557834L863.071876,156.573013L864.566982,158.833761L866.062337,162.603708L869.052925,164.862197L870.548436,166.368870L874.287707,169.381387L877.279700,171.640869L879.524025,173.147160L881.768569,176.163315L884.013301,179.179697L884.761694,182.196923L885.509935,185.214873L884.761408,188.234140L883.264654,192.008170L884.012770,195.780079L887.006034,198.041755L887.005851,201.059698L887.005668,204.077463L887.753878,207.094860L887.753670,210.112316L887.755855,213.129151L889.253983,216.901647L890.002091,219.919642L892.251470,222.939860L894.497042,225.203872L896.742351,228.976976L898.239093,231.995258L898.986661,235.012710L900.482728,238.784645L901.980543,242.558154L902.729523,246.331293L903.478535,250.104462L903.478574,253.122521L903.478633,256.895002L903.478674,259.158439L903.478728,262.930796L902.729826,265.947751L901.232031,268.963654L899.734324,271.224942L895.990462,273.483111L892.995799,274.233418L890.001510,274.229447L886.259241,274.224477L883.265854,272.712351L881.021052,270.447349L879.524651,267.429347L878.028403,264.413393L876.532148,265.920581L873.539754,268.181876L871.295316,268.936817L867.554089,268.940361L864.560756,268.943188L861.567981,268.942931L858.574847,265.173159L855.581887,262.910931L853.336906,259.894897L852.588326,257.632958L852.587768,254.617058L852.587211,251.600964L852.586649,248.584670L853.334329,245.568272L854.830300,242.551759L855.578076,239.534921L856.325881,236.517864L855.577075,233.500460L853.331867,231.991537L849.590212,231.236857L845.848817,231.236555L845.849530,234.253918L845.850046,236.516806L845.850952,240.288034L845.103462,243.304694L842.859497,245.566801L839.867476,247.828652L836.875415,249.336297L833.883504,250.843865L830.143950,253.105165L827.152093,253.858589L824.160622,255.365876L823.413848,258.381212L824.910695,260.643000L828.651161,262.151381L832.391156,262.152176L836.131523,262.906763L839.124095,264.415024L841.368859,266.676853L844.361611,268.938814L845.858259,271.200336L848.851116,274.215832L849.599633,276.476973L848.104054,278.737374L845.112221,279.490102L843.616611,280.996776L840.625383,283.256399L838.382436,286.269554L839.130985,288.530048L842.870576,288.531247L846.611451,288.529568L849.604393,287.773522L852.597135,287.017521L855.589704,286.261570L858.582066,285.505663L861.574578,285.501968L865.313901,286.256557L868.304910,288.522594L871.296315,288.527513L874.288135,287.778575L877.280326,287.029551L881.021155,288.543496L882.517672,292.315886L883.265972,293.825138L886.259403,297.600508L888.504740,299.866769L891.498849,299.872457L894.493347,299.878137L896.739509,302.144908L897.488311,305.163034L898.985964,308.182768L899.734831,311.201067L901.980369,314.972312L904.978866,315.742465L907.225809,316.500767L910.220431,317.255513L913.963589,319.518275L916.209432,321.026715L919.203863,323.289210L922.947139,324.798024L925.941548,327.060459L929.684663,329.323093L931.181595,331.584994L933.427060,334.600836L935.672670,336.862861L937.169160,340.632021L938.665785,343.647336L939.413518,347.415913L940.161412,350.430653L940.160805,352.691451L940.159396,357.966316L940.158403,361.733825L939.409109,363.993963L935.665740,364.745987L932.671240,364.744851L928.928150,364.743431L925.185164,364.742037L922.190812,364.740915L919.196476,364.739809L916.202198,364.738663L913.207988,364.737541L909.465470,363.229358L907.220242,360.214847L904.974896,357.953689L903.477554,360.213474L904.225725,363.227387L904.225480,365.487515L900.482767,366.992818L899.733925,370.005657L900.481904,373.017636L902.727037,374.524163L906.469006,376.031190L910.210875,378.291022L913.952998,379.045178L916.946919,379.046209L919.940602,379.800085L922.934327,380.553952L925.928060,381.307807L928.921210,383.567269L930.417293,385.826091L931.164011,390.342634L931.913053,393.359206L931.914682,398.639885L932.664373,401.658666L934.908330,404.668844L937.153321,406.175179L940.897389,406.181327L943.143937,406.185024L946.139509,406.189890L949.884147,406.196041L952.880020,406.200946L956.624174,406.958544L959.618443,408.466336L961.863643,409.972869L964.856874,412.232009L966.351904,414.488503L967.096749,417.494781L967.095683,418.245975L969.286639,427.226389L969.296197,430.235164L968.545496,433.249961L966.290246,436.268254L963.285137,440.040184L961.034750,442.302373L959.526430,445.320168L957.272468,448.336472L959.501906,449.848342L963.971964,450.607989L967.691054,452.120882L968.465569,453.617345L967.733551,457.376667L966.995352,460.385485L969.288229,463.384375L969.280655,467.152215L968.527137,470.165944L965.532784,472.425511L961.755138,472.433311L957.930765,470.194611L958.697527,470.942592L961.766771,473.936705L964.030527,476.191982L966.269878,477.698973L968.506038,480.712194L967.752689,483.724580L965.504759,486.736516L961.765159,488.242138L958.025511,489.747766L955.034565,490.500474L952.770847,492.760376L952.033018,495.770835L948.990667,495.773144L944.431804,495.776589L939.911299,495.778405L936.185070,495.777923L935.440157,498.033337L938.421590,499.537130L941.432468,501.040624L944.475010,501.792709L947.520302,502.545496L951.281371,502.545706L955.018016,502.545682L958.753423,503.298324L962.489609,503.298272L965.478409,503.298229L969.967770,503.298269L973.714934,503.298360L977.463060,504.051181L979.714093,507.062270L981.964743,509.320788L984.215557,511.579448L986.465378,512.332589L990.212388,512.332998L993.958387,514.591835L996.205973,516.850578L998.453600,519.862195L999.203321,522.120833L997.703805,525.131697L996.205013,527.389715L993.207773,529.647283L991.709029,532.657776L991.708830,534.915862L991.708487,538.679268L990.209998,539.431462L985.714873,540.182687L981.969253,540.181468L978.223728,541.685419L978.223477,544.695655L978.223294,546.953278L978.222988,550.715877L978.222729,553.725890L977.473425,556.735480L979.720389,558.993937L981.967641,558.994989L986.462444,558.244601L988.710196,555.235494L989.459247,556.740928L990.208173,559.751427L990.207696,565.019020L990.207425,568.028970L987.959695,570.285128L984.962895,572.540712L982.715441,574.044203L979.718977,575.547171L976.722561,578.554708L978.220304,581.564957L976.721809,583.820755L972.976832,583.818233L970.730081,583.064487L967.734762,580.805832L963.241524,580.050664L962.492339,582.306783L964.738663,583.812644L965.486874,587.574023L965.486342,590.582626L963.987947,594.342106L961.741301,595.092477L957.997032,596.593718L955.001620,598.847426L953.503672,601.854218L953.503187,604.862118L955.000133,607.871240L957.245874,610.881011L957.245357,613.888730L955.747366,616.894941L954.998534,617.646147L951.859064,623.593116L936.154293,626.605258L933.162549,626.605366 M933.162549,626.605366L930.918062,625.099690L927.178095,624.346944L924.933083,621.335562L922.688749,619.829887L919.696573,618.324315L916.709455,618.339231L913.722381,618.356111L910.734683,618.373093L906.245924,618.373146L902.503669,616.861326L899.510718,616.858471L896.517526,616.101527L894.274257,619.115629L892.030536,621.375743L889.038250,622.881032L886.793894,623.632907L883.801165,623.629912L880.808248,622.118724L879.311452,619.101054L879.310889,616.085100L877.814700,615.329742L873.326660,614.571525L870.334794,613.814815L867.343106,613.811994L864.351457,615.316921L861.359699,617.575735L859.115833,619.081390L856.124422,618.324563L853.133534,616.060063L851.638677,613.043393L848.647239,614.548140L846.403239,616.807457L843.411709,618.312250L841.167843,619.817779L838.175864,622.076439L833.689496,622.072001L829.951000,622.068280L826.211373,621.317813L823.218932,619.818066L820.225849,617.568202L817.981335,619.074871L814.988611,621.334201L812.739854,625.109402L809.743101,625.875757L806.746653,625.887841L803.000476,625.902996L799.255468,624.409115L796.259496,622.912094L794.013806,620.657427L791.768041,618.402700L788.771527,616.905201L785.772603,616.916688L782.773239,616.928175L779.773457,616.939644L776.773247,616.951105L773.772624,616.962600L770.770298,617.728947L768.516566,619.247377L764.760049,621.526948L761.757488,621.538771L758.754524,621.550580L755.010911,621.549293L751.271613,621.541815L746.784940,621.532847L742.298750,621.523838L737.813016,621.514848L734.821919,620.004480L732.577622,616.991279L730.332930,613.978507L728.835880,610.967090L727.339762,609.460100L724.336072,606.458556L722.074434,604.216005L719.064850,601.218510L717.575664,598.951122L713.847451,595.924312L710.860260,593.658472L709.356288,591.405432L706.353733,589.152887L703.356812,589.154313L700.359863,589.155714L697.362814,589.157149L693.618530,589.910282L689.876352,591.414790L686.132098,592.167919L683.134909,592.169355L680.889197,592.921774L677.142628,592.923579L673.395934,592.925420L669.646715,592.175868L666.646780,591.425933L662.899735,591.427719L659.150041,590.678088L656.149639,589.928074L652.397072,588.426808L649.396320,587.676692L644.899021,587.678797L642.651827,589.938244L639.633402,589.198598L637.387948,585.431325L635.891018,583.170875L635.891885,578.650732L635.893075,574.883585L635.894463,570.362948L635.895913,565.842208L635.897114,562.074850L635.898301,558.307450L637.396244,555.293933L638.145705,552.280142L638.895131,549.266322L639.645058,544.745331L639.646249,540.977600L639.647165,537.963360L639.648334,534.195510L638.152321,531.180841L635.907389,529.673126L634.411641,525.904857L633.664149,522.890317L632.168454,519.121989L632.169463,516.107540L632.170151,513.846680L635.165154,510.079037L637.411415,507.064866L639.657507,504.804224L640.406873,501.789638L636.665124,500.281709L634.419334,500.281446L630.674223,500.281472L627.678500,501.035053L624.683110,502.542184L623.935550,505.556304L623.187984,508.570355L622.440439,511.584267L622.440587,514.598429L620.943065,516.858933L618.696885,519.872801L616.451257,521.379487L613.457246,521.378984L610.461252,521.379016L608.214263,521.379062L604.469228,521.379094L601.472420,519.872349L599.226199,521.379172L597.730190,525.146098L596.233427,527.406172L594.737436,531.172844L593.241462,534.939368L591.745172,537.952450L588.000650,538.705783L585.754112,539.459065L581.260627,540.212409L577.516122,540.965756L574.520575,541.719079L572.274082,542.472338L567.780108,542.472431L564.784605,543.225739L561.788197,542.472576L558.781144,541.722235L554.999767,541.732684L551.996959,542.488011L551.245893,542.488584L545.541614,543.246546L536.789328,536.272152L546.606245,530.340125L546.611977,517.946619L553.941491,513.114297L553.848235,506.428745L547.643148,505.818775L537.947808,499.558054L551.168112,495.704287L544.589655,481.503348L552.073417,476.768186L561.862464,475.839464L566.475278,450.368183L536.965292,437.779223L500.474248,406.177277L485.948348,407.022480L485.901818,399.097394L518.487016,351.599519L518.956171,339.324748L497.392867,334.493087L499.192371,321.064945L488.257695,321.711261L457.243520,311.508054L495.612582,293.703801L506.690135,291.536491 "/><path d="M371.093488,191.405987L368.030641,189.281067L366.619270,185.964303L365.441390,185.494227L364.499464,184.786042L363.321534,184.790611L362.615387,184.081633L362.144990,183.134519L361.910137,182.186467L361.675811,180.763506L361.448137,179.802060L360.992217,178.589734L360.768174,177.619364L360.769051,177.380433L360.568285,175.435111L357.457655,171.153395L354.172956,169.016055L350.428004,161.652292L349.018769,157.381345L348.780649,153.352402L348.316142,150.499332L345.492854,135.793521L344.501665,131.812185L341.905089,123.998722L341.660998,118.088549L340.728049,104.573561L335.916610,103.611434L329.085419,100.778739L325.084987,99.838695L321.154513,98.604787L317.803136,98.601399L314.451585,98.598011L311.099876,98.594609L307.747996,98.591239L306.072247,96.051518L306.072567,92.667426L306.072960,88.437171L306.911300,85.053803L308.587539,82.517381L309.425944,78.287809L306.912022,77.438735L303.559883,77.434833L300.207507,78.277103L296.855026,78.273229L293.502326,79.115546L289.311243,79.956951L286.796489,79.954156L281.766729,79.948665L279.251869,77.407002L279.252127,74.021694L280.928933,72.330957L284.282538,68.103121L287.635804,66.414389L290.150840,63.032086L289.312803,60.491911L285.959774,59.641363L282.606527,59.637204L280.091612,57.941208L277.575833,55.406017L274.221015,52.881644L274.221260,50.342138L268.353075,45.256774L255.776516,52.035882L260.806112,64.729967L263.321373,68.100856L265.836931,70.628904L267.514217,73.161927L265.837006,76.545654L263.321337,78.235668L259.967026,79.084825L256.612841,79.935654L253.258915,80.786415L249.905441,80.792891L246.552307,80.799724L242.361405,79.964221L241.524109,77.433543L239.849074,74.060890L239.010714,70.674347L238.172067,67.285870L236.495063,63.897121L234.818086,61.355328L230.626172,59.660564L227.272795,59.660365L223.919419,59.660153L220.565867,58.812655L217.211796,56.270483L213.019434,54.575515L211.341613,51.185774L213.855549,46.948517L217.209021,46.101182L220.562098,43.558695L222.243248,41.040864L223.922048,37.666360L226.437749,35.131572L229.791720,33.444147L233.145463,32.602859L236.499045,31.761583L239.014264,29.227063L242.367734,25.847820L245.720853,25.006733L249.073760,25.011697L252.426556,24.170672L254.941165,21.636486L259.131811,19.950861L262.484108,19.109991L264.998221,19.113799L269.188222,19.120820L272.539997,19.126928L276.729931,19.127077L280.920476,19.121538L285.111269,19.116032L282.597682,16.573770L279.245823,14.032514L275.893435,13.188449L271.702973,12.345504L268.350744,11.501469L264.998682,9.808811L260.808536,8.959074L257.456333,8.107136L254.103973,7.255206L250.751477,5.557540L249.075327,3.017436L248.237202,2.170146L242.127463,0.000000 M242.127463,0.000000L227.722339,0.822976L215.539177,9.730018L197.926981,8.009412L183.666017,9.679595L180.313041,9.682536L176.960320,9.685855L173.608298,11.384126L169.418360,13.083121L166.066701,14.781172L162.715538,17.326517L159.364563,19.871660L156.012639,19.874820L152.659327,16.488817L152.657041,11.404764L150.976351,8.856962L148.452830,5.453502L145.090592,5.436828L140.889164,5.419838L137.529950,6.257808L135.851624,9.643193L134.173626,13.876096L133.335650,18.111177L132.497236,21.498675L131.658857,24.886118L129.980482,28.271191L128.302078,31.656274L124.101688,31.645489L119.900838,31.634827L116.542428,31.629753L112.370812,29.966379L109.866083,27.441470L107.359349,24.067001L105.687887,21.534305L101.492627,16.450589L98.975279,11.367965L98.269466,3.870870L69.605762,3.720491L45.266186,0.310706L36.438442,9.152258L36.875523,29.945902L28.574386,46.881858L17.166252,48.839934L9.185280,57.875237L10.864165,62.955827L7.508403,63.801673L4.152391,63.800827L0.796679,65.493326L0.797479,69.726594L3.314922,72.267052L6.671354,74.807650L9.188777,77.347991L7.511413,80.733858L4.995076,84.119421L3.317546,86.658589L3.318151,90.044538L4.996760,93.430812L7.513832,94.277749L10.869694,94.278475L14.225252,92.586314L18.419753,90.894344L20.936449,90.048415L25.131669,88.356843L29.327367,86.665648L32.683969,85.820588L36.879778,85.822326L41.075508,85.824099L45.271145,85.825882L49.466526,84.981175L52.822911,84.982608L57.018321,84.984367L60.374784,86.678623L62.892221,89.218842L62.892668,92.604299L60.376096,96.835017L58.698608,101.065960L58.699005,104.451096L58.699371,106.989897L62.894743,108.683925L67.090043,110.377872L70.446227,112.071452L72.963584,115.457062L74.641840,117.996089L74.642230,121.380591L73.803675,124.764741L76.320746,126.457689L78.837872,128.996660L77.160298,131.534280L72.967331,134.917901L69.611522,134.916936L66.256364,135.762275L62.062177,136.607383L58.707708,138.299069L57.871821,141.683996L57.874161,144.222752L62.072037,147.608676L66.268244,149.302061L70.463572,150.149267L73.819821,150.996229L77.176037,151.843158L78.014935,151.843364L89.756687,149.308078L98.147311,149.311478L107.363605,137.466963L107.357817,125.620346L107.355858,122.235002L107.353895,118.849496L107.351966,115.463863L107.350032,112.078008L107.348059,108.692004L107.346115,105.305812L107.344199,101.919445L111.535677,99.379927L114.895681,98.539092L120.776418,97.703475L124.139522,96.866618L128.343640,96.879055L130.863129,93.499839L133.383074,90.967438L137.583812,88.440486L141.785696,88.453659L144.307607,90.154684L145.990221,93.545714L149.344832,96.085989L152.696080,97.776397L155.209745,99.467258L157.723417,101.158171L161.075123,103.694733L163.589775,105.386792L166.106777,109.618821L168.622469,112.157929L171.975547,113.850688L175.326312,114.694576L179.510616,115.532035L182.859321,115.526775L187.881033,117.207315L190.392291,118.047679L193.738622,121.419924L191.223401,123.956811L192.894960,127.332187L194.566747,130.707985L193.726130,134.088307L191.211680,136.627157L187.023174,137.477666L183.672012,139.172145L180.321700,140.021407L182.832376,142.553677L185.343552,144.240667L187.012076,148.460181L187.010389,152.687628L183.657023,154.379971L180.304069,155.226786L176.950492,157.764495L177.787098,161.146028L181.976765,163.680996L185.328546,166.216354L188.680843,167.906309L188.679520,171.288488L188.678201,174.670663L188.676865,178.052899L188.675548,181.435135L189.512587,184.817238L192.026375,188.199047L192.863483,191.581300L191.185421,194.964041L188.668952,198.346868L184.467434,222.024585L190.337350,220.333185L202.078008,217.795827L206.273569,217.796320L208.790469,217.796528L214.663093,217.797004L217.180065,216.951531L221.374625,216.951883L223.890635,220.334737L223.889905,224.563078L223.889275,228.791429L223.888879,231.328429L225.566122,235.556797L227.243619,238.093808L229.759830,242.322080L230.598654,243.167736L234.975277,249.137911L261.059003,247.320675L285.121180,250.778052L291.830820,249.932626L296.142358,248.573868L297.083552,248.099235L297.789341,247.862034L299.200964,247.150161L299.906785,246.438080L300.847704,245.726188L301.788486,245.014448L302.494143,244.066365L303.199820,243.118222L303.670522,242.170380L304.376436,241.696517L306.023062,241.459413L306.964007,241.459456L308.610654,241.459530L309.552136,241.222705L310.728051,240.985474L311.904690,240.274238L313.079918,239.562615L314.489710,239.088154L316.134032,238.613781L317.308311,237.902526L318.717099,237.428426L319.421430,236.717409L320.595034,236.243509L321.533800,235.532702L322.003147,235.058857L322.941697,234.348218L323.880063,233.874612L324.818356,232.927260L325.756508,231.980044L327.163349,231.270092L327.866661,230.796750L329.038570,230.560578L330.913249,229.614488L332.084645,228.904940L333.498056,228.430365L334.449116,228.190641L335.875556,227.712599L337.054008,227.237848L338.227645,226.764379L339.637236,226.527689L340.810652,226.054286L342.214975,225.345091L343.384738,224.872767L344.554199,224.400561L345.489536,224.401879L346.424669,224.640042L347.364234,224.876966L348.775725,225.113395L349.952372,225.349838L351.360415,225.350272L352.299047,225.350563L354.413739,225.824293L356.287711,226.062298L356.989839,226.299643L358.863893,226.537458L360.744315,226.774102L362.390241,226.773888L363.810183,227.009100L364.757720,227.244810L366.176516,227.243545L366.888046,227.479551L368.074918,227.951903L369.023489,228.187855L370.209002,228.423683L371.394865,228.659576L372.578919,228.658686L374.002348,228.894501L374.241469,229.131238L376.834402,227.470652L378.715184,224.862079L378.695466,223.679574L379.165977,223.205357L379.866906,222.020711L380.579853,221.545121L381.282801,221.071430L382.459559,220.359975L383.411148,220.120703L384.363000,219.881371L385.314880,219.879227L386.020697,219.642053L387.196836,218.930533L387.196184,217.981834L386.956308,217.034039L386.948016,216.324422L386.220863,215.381075L385.735391,214.673654L385.485943,213.729244L385.472376,212.547947L385.477045,210.887504L385.480422,209.701330L385.248862,208.277951L384.544660,207.329376L383.839127,206.855344L383.118535,205.675892L382.387073,204.501292L382.153928,203.552826L381.685405,202.367519L381.216154,201.419421L380.274042,200.709535L379.570451,199.998046L378.872609,199.283757L378.174635,198.569336L373.268563,193.811744L371.093488,191.405987 " data-id="Douala-IV"/><path data-id="Douala-V" d="M510.967936,142.031217L510.848799,145.029252L511.248798,147.526292L511.169346,149.524750L512.069087,152.023039L512.969588,154.523418L514.389380,156.530094L515.309474,158.537520L515.249323,160.038781L515.149083,162.540479L514.069039,164.532236L512.511084,166.017179L510.953737,167.501900L508.885563,169.472611L508.805777,171.467226L507.254440,172.944619L504.736914,173.905459L501.752054,174.358994L500.214299,175.825510L498.696274,176.796534L498.108886,179.264845L497.991052,182.239995L497.884799,184.727748L497.292079,187.198623L496.723654,189.167991L495.664115,191.126004L495.096595,193.092663L494.038755,195.047007L493.943427,197.516545L493.376850,199.479724L493.300631,201.454577L493.205364,203.922963L493.240412,208.013834L493.908979,209.439105L497.332367,211.467281L499.134752,212.299132L500.980475,213.117057L502.541456,215.517810L503.210073,217.544027L503.408250,220.102566L504.031714,221.822373L504.101790,224.224974L504.399467,226.176808L505.071661,227.826959L505.890391,229.853499L506.262978,231.579239L505.521806,234.576572L503.586626,236.227225L501.739553,237.405802L517.506151,249.855599L507.398791,257.038166L506.079017,258.233625L504.602937,260.727569L504.014746,262.008453L503.728202,265.159773L503.509138,266.877219L502.917523,269.185310L501.583950,271.119629L499.578849,272.532358L496.610010,273.500173L495.644215,274.917787L494.743755,277.618972L494.159161,280.053427L493.598593,282.017369L493.005196,284.105830L492.782672,284.254756L492.708486,284.627778L492.485940,284.925977L492.263384,285.224193L492.115004,285.522518L491.744047,285.745941L491.669843,286.044382L491.447243,286.417286L491.447237,286.641194L491.447224,287.089002L491.447082,287.387467L491.446670,287.611157L491.445841,288.058562L491.593835,288.431708L491.742100,288.655703L492.113351,288.880077L492.335924,289.104175L492.484171,289.328140L492.557971,289.626564L492.706023,289.925079L492.853396,290.223321L493.075098,290.521688L493.297121,290.745551L493.519149,290.969418L493.740889,291.267832L493.962930,291.491714L494.259277,291.715680L494.481054,292.014130L494.851964,292.163606L494.999468,292.462001L495.221543,292.685911L495.370102,292.686030L495.663939,293.655927L500.171880,292.829540L502.170452,292.451922L504.176263,292.002607L506.848403,291.480906L553.485826,304.698184L587.349842,313.886605L658.127525,299.671722L685.722390,302.625839L724.106199,289.876134L787.649591,213.565509L801.626892,138.038789L819.651947,132.024195L836.709117,116.548149L850.013032,119.360834L854.060227,115.707179L848.959650,104.484543L850.176813,102.367010L851.956438,100.250724L853.152478,98.660585L854.374079,96.536034L854.526717,93.858842L854.660642,91.188376L854.742513,88.540291L855.455845,85.861488L856.126762,83.722524L856.195981,82.123213L856.288276,79.990573L856.380578,77.857657L856.519054,74.657764L855.490459,72.526379L855.582692,70.393392L855.674947,68.260136L856.911514,65.588070L859.811390,63.438258L862.717709,61.283628L864.478524,59.667375L866.241747,58.048907L868.573051,56.423748L870.921085,54.788426L872.747729,52.607403L875.174119,51.449251L877.597564,49.768577L878.841352,48.121157L881.305167,46.414609L883.269563,44.144578L885.216296,42.409381L885.863043,40.777000L880.173802,36.234941L868.889461,38.012899L865.414301,40.645879L861.954970,45.011070L859.366149,46.751559L857.651254,49.357530L855.942696,52.831426L852.504926,57.177687L849.934000,61.523060L847.356063,65.001236L845.627243,68.493744L842.160419,70.244468L838.703631,71.112877L835.246607,71.981378L831.789361,72.849905L828.322579,74.600603L823.993852,76.347877L822.251623,78.104976L818.766325,80.746380L817.899701,84.241119L817.881240,87.750937L819.551083,92.168603L821.297570,95.647209L820.429718,99.141277L816.074062,100.910834L811.784474,100.881595L809.993215,97.441640L807.355212,94.862365L806.498306,93.983022L803.073119,88.716106L801.361548,85.207159L799.608137,81.740315L796.962404,77.433083L794.363886,74.821805L790.914557,72.194757L788.324942,72.190079L785.735178,72.185395L780.555152,72.176043L777.101424,72.169809L773.645778,73.038463L771.913766,75.659847L771.907193,79.158752L770.178618,80.030424L765.859419,80.897713L761.541397,80.890366L758.086649,80.884483L753.766467,81.751900L751.173678,82.622275L745.125155,83.486903L741.665682,86.105442L739.070248,88.725274L737.337785,92.220882L734.746848,91.342249L732.158437,87.840124L729.567424,84.341944L728.705330,81.717556L726.978994,78.218175L724.387310,74.718753L720.928446,72.969852L718.332974,72.971039L714.007280,72.972995L711.410500,74.724590L707.949537,75.601267L704.489383,75.602815L701.894317,75.603976L698.435849,72.980090L694.111646,71.231624L690.652422,69.481769L687.200943,65.927415L684.606227,63.296852L682.876845,59.790455L681.147156,56.283402L678.551939,51.898291L676.821227,50.143281L672.493275,49.262276L669.030667,48.382044L666.433577,47.502605L662.104663,45.744468L660.372750,43.111743L660.373778,38.766127L658.643545,34.419713L655.181895,31.809738L652.586280,29.200963L650.854182,27.439786L650.854256,25.692011L647.044864,17.200968L644.484486,20.666510L641.895647,23.281597L640.162113,25.905762L636.695442,28.530491L634.095400,31.154832L630.628947,32.904982L628.028986,35.529173L624.562511,38.153600L620.229789,39.029548L615.897114,39.905489L612.430909,41.655403L608.098511,41.656953L604.632528,42.532520L601.166688,42.533770L596.833182,43.410738L593.367446,43.411966L589.898144,44.290823L585.562665,45.169919L581.227401,46.048987L577.755199,47.805141L574.279976,50.438429L570.795930,52.206808L567.350543,54.810270L563.038715,57.414144L560.425981,59.177153L556.121145,61.773484L552.665371,63.512829L550.069820,65.258139L546.609125,67.876404L544.013899,70.495323L541.418567,73.114293L539.688811,75.733851L536.228616,80.099510L533.633455,83.592225L531.903921,87.085522L530.173846,89.705284L526.713074,94.071314L524.983287,97.564815L524.119279,101.058802L524.121115,104.553278L522.391197,108.046907L521.527115,111.540994L521.527564,112.414629L519.808837,121.384503L518.349752,122.762951L516.443825,123.633753L515.437548,125.514182L514.917107,126.934665L514.379055,128.835559L514.270499,131.723773L513.732883,133.622442L513.642561,136.027833L512.640639,137.896742L510.967936,142.031217 Z "/><path data-id="Douala-II" d="M443.972954,314.467743L457.112380,311.625723L488.592774,321.738262L499.201335,320.987024L497.268931,334.353533L519.041729,339.087711L518.346170,351.962703L486.043696,399.397511L486.020783,406.861036L492.749840,406.183765L500.148825,406.185778L510.908980,413.644932L536.480857,437.366362L566.096609,450.241084L562.053608,475.319252L551.941481,476.706404L544.537195,481.445061L551.261451,495.695844L538.470332,499.753859L547.896791,505.853905L553.960411,506.522582L553.962923,513.290235L546.554394,518.037751L546.559517,530.216796L536.456844,536.321380L527.694277,530.246022L524.323887,520.090764L512.891871,514.643101L498.746440,514.651978L486.607356,506.546318L471.108758,505.879315L461.038870,497.714581L444.904923,488.883665L437.517419,475.997291L429.432383,468.549499L412.543203,462.485956L399.096291,454.341978L402.340891,449.617661L402.997523,440.348514L407.897440,439.545219L412.407426,432.473668L408.657119,416.438833L438.261095,380.337727L413.728852,360.417102L427.453232,348.544427L426.729062,339.091591L416.367578,339.173325L412.248572,326.577087L440.748167,323.373987L443.972954,314.467743 Z "/><path data-id="Douala-I" d="M510.490757,144.414241L510.787180,147.857097L510.707869,148.808923L511.268247,149.374548L511.828991,149.940554L512.170866,150.698309L512.919222,151.453862L512.854459,152.213466L513.228650,152.591436L513.757598,153.538095L514.099336,154.295586L514.644749,155.052862L514.979651,155.812514L515.106330,156.572954L515.417309,157.522913L515.543654,158.281881L515.873600,159.041090L515.757260,160.175519L515.679835,160.930415L515.602524,161.684192L515.105222,162.619881L514.425477,163.363532L513.782387,163.731492L513.089150,164.657962L512.818575,165.400424L512.145674,166.136175L511.675623,166.872634L511.006157,167.604281L510.605550,167.598152L508.881569,169.046422L508.670070,171.432994L508.028170,171.969444L507.387891,172.504534L506.536687,173.215899L505.900161,173.747853L505.085002,174.092128L504.289497,174.253979L503.713536,174.238298L502.563807,174.207012L501.607939,174.181000L501.575237,174.542747L499.099989,176.639319L497.720588,179.644112L497.671821,180.356423L497.615367,181.068192L497.530020,182.134190L497.456031,183.020965L497.396932,183.729312L497.723951,184.451506L497.664710,185.158347L497.605560,185.864238L497.531727,186.745265L497.472749,187.449031L496.808064,188.477271L496.764302,189.002975L496.102509,190.025875L495.457485,190.870785L495.400278,191.567159L494.962366,192.243454L494.715502,192.927823L494.455020,193.783956L494.209153,194.465446L493.963746,195.145641L493.907859,195.835099L493.852042,196.523638L493.305014,203.710116L493.353403,206.114281L493.314510,206.796597L493.206453,207.973259L493.332438,208.658569L493.645961,209.357775L494.570215,209.598338L495.292322,209.992537L495.999594,210.555117L496.700488,211.115263L497.224609,211.491226L498.112096,211.891045L498.647138,212.097068L499.374512,212.319444L500.104245,212.717781L500.820110,213.285512L501.536900,213.853965L501.857560,214.560142L502.369060,215.282244L502.865368,216.173033L502.994836,216.862575L503.124204,217.551601L503.924853,221.603202L504.214804,225.543136L504.405823,226.197457L504.795749,227.286894L505.607444,228.588919L505.997958,229.679766L506.181466,230.554711L506.134263,231.871592L506.094946,232.968374L505.848760,233.847837L505.173879,234.731024L504.507987,235.393915L503.843227,236.055683L502.966316,236.718087L502.532397,236.939717L502.083695,237.596967L517.561812,249.891101L505.920305,258.121190L505.673405,259.018518L505.212397,259.925241L504.309233,261.288773L503.843629,262.406057L503.820005,263.068070L503.780655,264.170672L503.749199,265.052073L503.725712,265.712112L503.475630,266.806626L503.226866,267.893000L502.774865,268.756444L502.525754,269.846589L501.635100,271.160857L500.339625,272.043470L499.903787,272.481448L498.418173,272.930126L496.937411,273.377343L495.871510,274.034548L495.426047,274.899957L495.404799,275.545840L495.168164,276.408217L494.723641,277.271169L494.473452,278.561656L494.237534,279.421549L493.994801,280.495321L493.766262,281.139295L493.731305,282.211290L493.489045,283.282745L493.039883,284.352982L492.184761,285.207009L491.737225,286.274151L491.496414,287.340384L491.262461,288.190100L492.059363,289.041075L492.458855,289.471871L492.844604,290.530637L495.728889,293.431332L457.115544,311.525553L443.805919,314.724198L440.663673,323.418524L412.423796,326.583112L416.347668,339.221711L426.540786,339.222325L427.330230,348.700207L414.005769,360.547780L438.327636,380.296057L408.542340,416.638977L412.462301,432.434759L407.764537,439.550973L403.064456,440.347931L402.286344,449.958284L386.968334,448.591386L383.915791,448.291113L381.562695,450.464544L375.124490,448.798295L360.682867,458.006386L352.457726,464.050473L343.766938,470.506749L337.452673,473.224285L334.612394,473.260898L319.716228,457.963358L316.419981,452.934358L313.268595,446.401968L307.087086,438.044499L303.461635,434.445023L300.967197,430.694155L298.728361,426.411172L299.603975,423.033353L299.603853,422.745989L299.603609,422.170222L299.603321,421.496766L299.603116,421.014570L299.602952,420.628119L299.602829,420.337880L299.602580,419.756352L299.602376,419.270680L299.602165,418.784040L299.789812,418.499289L299.975365,417.918323L300.530215,417.144462L300.994726,416.562078L301.367506,416.173414L301.741435,415.783552L302.410389,413.509875L302.426637,411.719142L302.430258,411.319867L302.622784,410.921977L302.721084,410.522472L302.628405,410.321231L302.253904,409.917038L301.784195,409.612468L301.410457,409.414054L300.944145,409.319517L300.668346,408.925331L300.672454,408.527875L300.675535,408.229560L301.334480,407.822111L301.805907,407.615627L302.092744,407.211370L302.097496,406.810964L302.099870,406.610626L300.426699,405.141566L298.102668,402.349604L292.810428,396.353788L292.845070,394.398830L292.850242,394.104597L292.857146,393.711923L292.864058,393.318832L292.876168,392.629919L292.884914,392.137431L292.798388,391.642702L292.426030,391.142531L292.055416,390.543524L291.589614,389.942340L291.310826,389.542142L291.221888,389.144537L291.039419,388.646270L290.768644,387.752534L290.303553,387.153910L289.933517,386.556587L289.565066,385.860450L289.099335,385.361978L288.444795,384.963801L287.978911,384.667202L287.326562,384.371424L287.141847,384.174131L286.770411,383.977438L285.842899,383.383652L284.734321,382.494394L283.996957,381.802632L282.980677,381.108059L282.242212,380.412183L281.872596,380.113270L281.318506,379.615364L280.764780,379.117797L280.583642,378.725204L280.585777,378.230816L280.587483,377.834922L280.589778,377.040172L280.497952,376.341608L280.405986,375.641983L280.313861,374.840864L280.313737,374.237695L280.313636,373.734295L280.313425,372.725400L280.313263,371.916270L280.035848,371.315629L279.758417,370.816193L280.433500,368.796430L280.431781,368.419888L280.428465,367.948199L280.424377,367.475505L280.417630,366.812052L280.411989,365.958317L280.410779,365.294445L280.412542,364.536219L280.414311,363.776813L280.415640,363.206487L280.414622,362.538491L280.408072,361.769779L280.403969,361.288357L280.399861,360.806183L280.665711,360.231534L280.844857,360.041268L281.113268,359.658466L281.381572,359.177698L281.651161,358.793111L281.738886,358.307422L281.825565,357.625423L281.822365,357.038929L281.822021,356.746667L281.821330,356.161477L281.820635,355.575388L281.820057,355.086296L281.819361,354.498562L281.821134,354.011087L281.823423,353.621899L281.826868,353.037605L282.100068,352.644093L282.372892,352.248439L282.737755,351.851637L283.103534,351.453835L283.466404,351.148154L283.920650,350.738671L284.194169,350.532504L284.743550,350.120114L285.111529,349.912240L285.757935,349.598358L286.220814,349.285600L286.498724,348.974330L286.590671,348.664927L286.963091,348.350878L287.336302,347.932701L287.774306,347.742147L289.894922,347.939065L290.206195,348.502927L290.520003,348.829675L290.727367,349.159312L290.825990,349.603131L290.922545,350.158359L291.025239,350.379076L291.007389,351.388650L290.786216,351.839509L290.352787,352.292099L289.924345,352.520398L289.706901,352.857092L289.382334,353.305447L289.162342,353.862712L288.942840,354.418733L288.830724,354.862258L288.505357,355.527234L288.288988,355.969477L288.176133,356.520564L287.959217,357.071904L287.740420,357.728970L287.629514,358.166014L287.407820,359.150849L287.189845,359.914545L287.080409,360.350119L287.385212,360.898685L287.691980,361.339538L287.998812,361.780556L288.304199,362.330594L288.609560,362.880621L289.019424,363.433106L289.532029,364.096163L289.941842,364.648464L290.141408,365.306742L290.446848,365.857852L290.648330,366.294488L290.956329,366.625617L291.476363,366.855257L291.465916,367.393030L291.663342,368.045057L292.177690,368.598918L292.488606,368.823479L292.797622,369.156205L293.418369,369.714223L293.934341,370.269733L294.345031,370.822330L294.755862,371.375119L295.169369,371.820381L295.368573,372.366131L295.885885,372.923132L296.406333,373.373093L296.932869,373.608404L297.561412,374.063597L298.193909,374.411855L298.824616,374.868523L299.134258,375.312561L299.557551,375.545898L299.769399,375.662677L300.196828,375.788699L300.628208,375.807037L301.276782,375.834606L302.141526,375.871028L302.907953,375.904140L303.571582,375.714898L304.233518,375.633808L304.786691,375.547790L305.451461,375.466090L306.118292,375.384137L306.671596,375.406862L307.120167,375.315534L307.908786,375.127760L308.360130,375.035836L309.036488,374.952654L309.714993,374.869208L310.170297,374.776602L311.202400,374.484350L312.000953,374.404087L312.688542,374.319167L313.150092,374.225279L313.600763,374.354156L313.922351,374.813132L314.267801,374.826652L314.409190,374.273226L314.789061,373.615204L314.813817,373.166964L315.196708,372.505312L315.446400,372.175551L315.928023,371.852786L316.527157,371.532827L317.115031,371.438410L317.697736,371.457166L318.284723,371.475628L318.620950,371.827043L319.069671,372.296024L319.276606,372.757831L319.613860,372.996955L320.213647,372.790634L320.704643,372.465871L321.322132,372.030111L321.469018,371.577342L321.512436,370.891078L321.548686,370.318099L321.466567,369.740678L321.150561,369.041653L320.817527,368.686691L320.243800,368.326575L319.788692,367.970076L319.439926,367.846504L318.867704,367.487853L318.767997,367.140627L318.786301,366.795900L318.816843,366.220678L318.841309,365.759891L319.108731,365.187643L319.483042,364.847528L319.983495,364.392794L320.856615,363.709914L321.461510,363.602947L321.707890,363.490127L322.581574,362.919188L323.572524,362.464821L324.561368,362.125844L325.304262,361.900034L325.920452,361.789974L326.538298,361.679617L327.035266,361.567443L327.540881,361.336476L328.409537,361.227981L328.794979,360.994483L329.668419,360.885048L330.545073,360.775214L331.183715,360.542723L330.967013,360.061540L330.742159,359.700035L330.525944,359.218476L330.208213,358.493015L330.015086,357.767450L330.069854,357.042366L330.110741,356.322534L329.880946,355.962233L329.408096,355.482160L328.935747,355.002591L328.595073,354.403067L328.156358,353.323468L327.940254,352.723448L327.986577,351.880102L328.041244,351.029783L327.687007,350.671327L327.317646,350.556315L326.566104,350.568981L326.070647,350.574408L325.576186,350.579822L325.082717,350.585224L324.473382,350.471973L323.620230,350.361782L323.136508,350.247666L322.531590,350.135208L322.049801,350.021521L321.334351,349.789240L320.379309,349.559829L320.023345,349.444202L319.427356,349.331161L318.348144,349.342174L317.517058,349.232081L316.693558,349.003832L314.932448,348.666240L313.534862,348.325722L312.019974,348.108962L310.977527,347.889125L309.707864,347.672059L309.133013,347.563122L308.217208,347.342751L307.760409,347.232835L307.307975,347.006925L306.512440,346.786437L306.068855,346.329312L305.501215,346.222405L305.055602,345.881819L304.615400,345.422008L303.740596,344.383870L303.083135,343.691670L302.637743,343.465720L302.083548,343.124891L301.759243,342.662008L301.431460,342.316820L301.107302,341.854135L300.667200,341.511972L300.568279,341.043885L300.578484,340.690403L300.595512,340.100585L300.602330,339.864414L300.648231,340.005526L322.169844,325.115694L322.460099,322.151456L342.824075,306.884036L355.209883,299.350549L362.141157,291.329933L365.415071,287.390712L366.682566,286.182194L366.978831,285.669065L367.276199,285.364212L367.773319,285.064783L367.972524,284.860708L368.371777,284.346393L368.671900,284.144234L369.073053,283.733268L375.874547,275.255146L376.191343,274.930235L376.297082,274.821786L377.036106,274.280379L377.461642,273.844227L377.887798,273.404482L378.313409,273.073559L378.745619,272.409500L379.173751,272.076164L379.604973,271.630398L380.360694,270.958168L380.906486,270.282804L381.345237,269.717840L381.456821,269.491507L382.005095,268.923374L382.445277,268.467251L382.889321,267.895753L383.445871,267.207891L383.781928,266.748795L384.462153,265.597545L384.691641,265.135654L385.031152,264.671331L385.261827,264.207292L385.831810,263.390213L386.174432,262.921388L386.852945,262.329258L387.312459,261.737947L387.774350,261.140826L388.353323,260.420518L389.044913,259.703493L389.752265,258.518534L390.102226,258.151580L390.578153,257.422213L390.824848,256.817356L391.183913,256.214328L391.768118,255.720903L392.011326,255.238343L392.243537,255.111834L392.957053,254.256062L393.560830,253.394096L394.043912,252.772082L398.030250,247.876745L400.167765,246.800265L400.530874,246.558270L400.900827,246.196531L401.389447,245.832255L401.761566,245.468548L402.383229,244.861094L402.637524,244.498973L403.016364,244.015090L403.384012,243.770255L403.875537,243.405187L404.365527,243.042509L404.741741,242.675618L405.357399,242.304804L406.447555,241.086683L409.280764,239.191622L409.631909,238.738421L409.876243,238.168763L410.233172,237.598598L410.582436,237.256724L410.936892,236.798947L411.292259,236.339992L411.531187,235.994849L411.892697,235.418043L412.250601,234.955618L412.610310,234.490707L412.868714,233.788515L413.226342,233.436176L413.584704,233.083182L413.943474,232.730018L414.188306,232.376530L414.562945,231.670194L414.923390,231.315252L415.395666,231.075669L415.985224,230.834176L416.455150,230.711149L416.703035,230.354743L417.179805,230.112803L417.520151,230.344730L417.858986,230.579140L418.308209,230.932733L418.893024,230.928477L419.151921,230.449525L419.522711,230.088002L420.005845,229.844302L419.677824,229.368321L419.088092,229.376658L418.499754,229.385009L417.912830,229.393337L417.576825,229.042848L417.118212,228.813921L416.785735,228.348428L416.574740,227.763176L416.592838,227.291348L416.615488,226.700920L416.638164,226.109774L416.663659,225.513352L416.817240,224.673088L416.955250,224.191104L416.742826,223.714387L416.769299,223.112797L416.795899,222.510071L416.817116,222.027374L416.597304,221.672691L416.142678,221.324871L415.566454,221.101206L414.994237,220.761436L414.784678,220.166457L414.330565,219.822825L413.979337,219.837290L413.619030,220.093087L413.245282,220.709512L413.109192,221.196774L412.967388,221.805980L412.373861,222.077251L411.782653,222.347451L411.421227,222.723173L410.947064,223.099025L410.584527,223.696338L410.569562,224.165016L410.672159,224.514402L410.429699,224.985874L409.854567,225.228039L409.277311,225.586125L408.931014,225.823780L408.464841,226.297089L408.574238,226.411446L409.248744,226.517389L409.927793,226.508883L410.494948,226.501782L411.066428,226.487443L411.412282,226.473783L411.982242,226.685133L412.086088,227.031801L411.727379,227.395521L411.480983,227.870782L411.235135,228.344983L410.878802,228.705704L410.420683,228.827568L410.183218,229.177230L410.164859,229.756321L409.822255,229.874236L409.257342,229.880090L408.806322,229.884744L408.366703,229.542636L408.138457,229.660247L407.893414,230.353896L407.883194,230.699265L407.859377,231.504176L407.732961,231.966343L407.711262,232.657813L407.581344,233.233846L407.451675,233.808778L407.329346,234.153411L406.970350,234.955926L406.636603,234.956903L405.957216,235.414756L405.394174,235.757035L404.933618,236.438468L404.590831,236.891369L404.142231,237.229939L403.913862,237.568163L403.357886,237.904705L403.021684,238.241063L402.577390,238.576157L402.134286,238.910352L401.478487,239.130514L401.038126,239.463283L400.598562,239.798122L400.267995,240.131463L400.045932,240.461256L399.609798,240.788586L399.279295,241.227711L398.965460,240.894577L398.867694,240.452729L398.874505,240.120415L398.881353,239.786743L398.895065,239.118451L398.906516,238.560575L398.917978,238.001817L398.931739,237.331528L399.050607,236.772620L399.167365,236.324767L399.174359,235.988407L399.186023,235.427162L399.305467,234.864889L399.535454,234.188459L399.879128,233.283454L400.118040,232.262471L400.350225,231.579111L400.699654,230.550686L400.819030,230.092781L400.826806,229.750009L400.844975,228.949068L400.857974,228.375981L400.870992,227.802076L400.894474,226.766969L400.912577,225.962568L400.930487,225.159480L400.943594,224.581221L400.954430,224.113807L401.072392,223.762296L401.303329,223.291471L401.424491,222.821828L401.545711,222.352852L401.896398,221.528994L401.907509,221.061357L401.918631,220.593183L401.932502,220.007796L402.054428,219.536911L402.065587,219.067635L402.076758,218.597834L402.090741,218.009847L402.101941,217.538864L402.107545,217.303174L402.047541,215.534908L402.094914,213.735038L402.112743,213.057713L402.127625,212.492282L402.148499,211.699158L402.154472,211.472225L402.171954,210.792528L402.186524,210.225344L402.201110,209.657349L402.108733,208.976105L401.903470,208.409654L402.108461,204.536257L402.114061,204.307637L402.151290,202.814369L402.195937,201.075148L402.216671,200.261941L402.228473,199.796897L402.249090,198.982319L402.269586,198.167242L402.287185,197.467362L402.301874,196.883246L402.313640,196.415379L402.331311,195.712618L402.346059,195.126098L402.366741,194.303615L402.270121,193.717335L402.284858,193.128176L402.610090,191.421634L403.792626,191.407707L404.439582,191.400088L404.871648,191.394998L405.412588,191.388628L405.954487,191.382245L406.603716,191.489604L407.147679,191.482178L407.799515,191.583716L408.234014,191.690339L408.666914,191.907414L409.100575,192.123141L409.427744,192.226209L409.972983,192.437634L411.834904,193.183536L412.054216,193.292519L412.496984,193.392390L413.041350,193.843159L413.369839,194.066563L413.919628,194.398799L414.246402,194.736026L414.682547,195.186121L414.896913,195.528823L415.337728,195.862258L415.783298,196.078698L415.998177,196.422125L416.440121,196.758261L416.994011,197.097450L417.321561,197.442181L417.649278,197.787087L418.213866,197.892578L418.546848,198.120579L418.875490,198.466299L419.104032,198.461841L419.515328,199.408244L420.842262,200.338972L421.175906,200.569784L421.745274,200.680219L422.310146,201.019043L422.883996,201.237892L423.446516,201.694897L424.123861,202.154455L424.691606,202.498577L425.024619,202.847766L425.350955,203.315705L425.455149,203.550681L426.010711,204.133338L426.581090,204.479827L426.915136,204.830095L427.368168,205.179103L427.695289,205.648130L428.029948,205.999037L428.357194,206.468232L428.684466,206.937464L429.131231,207.406006L429.594105,207.639122L429.929803,207.991114L430.385776,208.342886L430.730159,208.577526L431.192250,208.813971L431.651841,209.052540L432.099433,209.524762L432.435804,209.878844L432.772333,210.233091L433.248650,210.238405L433.725904,210.243725L434.175189,210.717630L434.512119,211.073321L434.840359,211.546733L435.163199,212.022222L435.381422,212.375947L435.937031,213.085700L436.267801,213.558224L437.062694,214.273562L437.626124,214.868121L438.077156,215.344070L438.528443,215.820289L438.859927,216.293755L439.318814,216.654317L439.665059,216.895915L440.267242,216.911698L440.705288,217.621751L441.725467,216.833168L442.347654,216.615482L442.735600,216.274174L443.266190,215.584258L443.648069,215.242614L443.903024,215.014518L444.207595,214.311394L444.232884,214.073495L444.531993,213.485100L444.699198,213.011371L445.011454,212.300144L445.203083,211.583765L445.481920,211.228555L445.540907,210.626643L445.696841,210.267763L445.857536,209.789862L446.152290,209.192374L446.572716,208.594668L447.138408,207.754575L447.542971,207.394834L447.706471,206.910953L447.763425,206.182280L447.802275,205.695328L447.853884,205.084370L447.884898,204.717237L447.937004,204.104257L447.979322,203.612762L448.042918,202.874079L448.085400,202.380656L448.233496,202.133501L449.062542,201.388285L451.003072,199.639925L451.800150,199.383976L452.230258,198.881062L452.651344,198.501884L453.073066,198.121971L453.887072,197.737144L454.431521,197.479753L454.988155,197.095539L455.141062,196.841480L455.589966,196.204142L456.007366,195.945303L456.304510,195.560883L457.010850,195.042268L457.431445,194.781140L457.974710,194.644908L458.530691,194.380519L458.809236,194.248061L459.542635,193.268458L460.619364,191.956091L461.088629,191.632087L461.673092,191.310377L462.259413,190.987644L462.726954,190.774174L463.313991,190.450496L463.902754,190.125866L464.378026,189.797369L464.849402,189.581734L465.316685,189.479423L465.790127,189.262967L466.392552,188.820058L466.872267,188.600969L467.235624,188.379011L467.723372,188.044015L468.094879,187.705742L468.473715,187.251240L468.748480,186.562045L469.254235,185.990655L469.385118,185.760748L469.401845,185.413593L469.800750,184.605718L470.183938,184.144024L470.447605,183.680294L470.838369,183.099560L471.097575,182.750407L471.363132,182.283578L471.756605,181.698761L472.273052,181.112278L472.663096,180.641613L472.931831,180.169878L473.329860,179.578600L473.716664,179.222411L474.104425,178.865341L474.493147,178.507384L474.765537,178.030383L475.038508,177.552356L475.310414,177.074304L475.332628,176.598933L475.479697,176.121401L475.491656,175.882795L476.083960,174.426587L476.555304,172.963009L476.837893,172.471279L477.246342,171.976211L477.798526,171.231954L478.343711,170.608203L478.618213,170.002480L479.023294,169.273149L479.168603,168.787985L479.198411,168.179854L479.228547,167.687900L479.514872,167.186495L479.817154,166.436848L479.983967,165.813725L480.279960,165.184247L480.568960,164.677360L481.011662,163.790125L481.185546,163.156540L481.359826,162.521504L481.663741,161.879681L481.820627,161.494788L482.255626,160.844403L482.682749,160.318995L483.232184,159.913508L483.633510,159.768100L484.545518,158.660995L485.590870,157.333148L485.952652,157.118334L486.342439,156.674327L486.734503,156.343652L487.249580,155.901535L487.514595,155.564840L487.912748,155.001111L488.426955,154.555290L488.680817,154.332156L489.188615,153.885077L489.576040,153.433087L490.085595,152.983854L490.341568,152.527642L490.602192,151.954802L490.770041,151.026712L490.917699,150.678812L491.213651,149.981508L491.370463,149.514569L491.782322,148.934506L491.948637,148.347490L492.221465,147.998211L492.750976,147.534713L493.032654,147.065459L493.314945,146.595185L493.731072,146.006892L494.014851,145.534251L494.564163,144.942913L494.854924,144.466122L494.900837,143.866085L494.940243,143.267238L495.207022,143.030290L496.139481,142.199753L498.206753,140.504536L498.630416,140.136519L499.177710,139.770211L499.457441,139.525186L500.117370,139.283540L500.628107,139.287195L501.271756,139.290258L502.048980,139.292951L502.707691,139.291845L503.256977,139.044038L503.807854,138.795515L504.248771,138.298809L504.547028,137.925456L504.990168,137.426177L505.557566,137.049226L505.869455,136.548064L506.316527,136.044526L506.619042,135.666189L507.444530,134.302699L508.080891,133.900791L508.543408,133.117541L508.796363,132.527293L509.275533,131.731312L510.183111,130.723783L510.872622,129.914930L510.946360,129.125319L511.264604,127.930244L511.341529,126.950152L512.014588,126.146845L512.837464,126.118150L514.089606,125.878736L515.123927,125.842419L515.094314,126.235378L514.606723,127.230709L514.356019,127.825446L514.282187,128.804506L514.418385,129.587597L514.572402,130.172747L514.463845,131.356327L514.387315,132.146670L514.296423,133.130211L514.236129,133.908553L514.145822,135.074487L514.070665,136.044657L513.801877,136.826348L513.548861,137.413085L513.059357,138.390739L512.601884,138.979800L512.129966,139.760557L511.659102,140.539568L511.578409,141.503590L511.490892,142.469630L511.417743,143.242874L511.140205,144.018458L510.490757,144.414241 Z "/></g>

<g class="" id="land"><path data-id="land" d="M447.106247,156.375429L445.925821,156.505190L444.914218,157.356283L443.934296,157.977837L442.948667,158.597160L442.213400,159.002741L441.439163,159.876253L440.645525,160.983586L440.103522,161.877638L440.025652,162.813098L439.928331,163.982210L439.831026,165.151071L439.521230,166.065248L438.979538,166.958573L438.205944,167.831059L437.664387,168.724136L437.103500,169.850678L436.794017,170.764182L436.523335,171.210545L435.709573,172.549340L434.676074,173.633687L433.409479,174.697573L432.882296,175.356672L431.609986,176.421091L430.839596,177.060151L430.049959,177.933070L429.762666,178.612932L428.734293,179.698228L427.702466,180.783794L426.921780,181.656616L426.160475,182.296020L425.399055,182.935517L424.403091,183.554777L423.641396,184.194479L422.625613,185.047572L422.098244,185.707735L421.498787,187.301105L421.441406,188.001410L421.326660,189.401780L421.250174,190.335160L421.154594,191.501677L421.503734,192.714025L421.889113,193.460726L422.740594,194.248408L423.415324,194.544243L424.346021,194.625920L425.102867,193.986765L425.941532,192.640873L426.731582,191.764863L427.489942,191.125535L428.205558,190.953887L429.362702,191.057517L430.288439,191.140422L431.235514,190.989496L431.993744,190.350185L432.983354,189.731634L433.720224,189.326187L434.731013,188.473898L435.470694,188.067835L436.234313,187.427427L436.743288,187.000575L437.993641,186.167543L438.750556,185.528869L439.299981,184.635435L440.309056,183.783997L441.292636,183.166810L441.818486,182.507470L442.800666,181.890405L443.783052,181.273212L445.017113,180.443049L445.794475,179.570732L446.343328,178.677517L446.911670,177.550964L447.238185,176.404206L447.506162,175.957828L448.100998,174.363787L448.870045,173.490836L449.415509,172.597360L449.708736,171.916909L450.491130,171.044644L451.532801,169.960554L451.851978,169.047646L451.937574,168.113991L452.018185,167.179470L452.098519,166.244839L452.450821,164.863441L452.994741,163.970028L453.095232,162.801381L452.943838,161.845642L452.348895,160.614557L452.177365,159.892413L451.814150,158.681804L451.665916,157.727098L451.750876,156.793842L451.581200,156.072473L450.209211,155.713556L449.512732,155.650833L447.887414,155.504462L446.895678,156.121325L446.409669,156.312792L447.106247,156.375429Z "/></g><style xmlns="http://www.w3.org/1999/xhtml" charset="utf-8" type="text/css">/* See license.txt for terms of usage */
/** reset styling **/
.firebugResetStyles {
    z-index: 2147483646 !important;
    top: 0 !important;
    left: 0 !important;
    display: block !important;
    border: 0 none !important;
    margin: 0 !important;
    padding: 0 !important;
    outline: 0 !important;
    min-width: 0 !important;
    max-width: none !important;
    min-height: 0 !important;
    max-height: none !important;
    position: fixed !important;
    -moz-transform: rotate(0deg) !important;
    -moz-transform-origin: 50% 50% !important;
    border-radius: 0 !important;
    box-shadow: none !important;
    background: transparent none !important;
    pointer-events: none !important;
}

.firebugBlockBackgroundColor {
    background-color: transparent !important;
}

.firebugResetStyles:before, .firebugResetStyles:after {
    content: "" !important;
}
/**actual styling to be modified by firebug theme**/
.firebugCanvas {
    display: none !important;
}

/* * * * * * * * * * * * * * * * * * * * * * * * * * * * * * * * * * * * * * * * * * * * * * * * */
.firebugLayoutBox {
    width: auto !important;
    position: static !important;
}

.firebugLayoutBoxOffset {
    opacity: 0.8 !important;
    position: fixed !important;
}

.firebugLayoutLine {
    opacity: 0.4 !important;
    background-color: #000000 !important;
}

.firebugLayoutLineLeft, .firebugLayoutLineRight {
    width: 1px !important;
    height: 100% !important;
}

.firebugLayoutLineTop, .firebugLayoutLineBottom {
    width: 100% !important;
    height: 1px !important;
}

.firebugLayoutLineTop {
    margin-top: -1px !important;
    border-top: 1px solid #999999 !important;
}

.firebugLayoutLineRight {
    border-right: 1px solid #999999 !important;
}

.firebugLayoutLineBottom {
    border-bottom: 1px solid #999999 !important;
}

.firebugLayoutLineLeft {
    margin-left: -1px !important;
    border-left: 1px solid #999999 !important;
}

/* * * * * * * * * * * * * * * * * * * * * * * * * * * * * * * * * * * * * * * * * * * * * * * * */
.firebugLayoutBoxParent {
    border-top: 0 none !important;
    border-right: 1px dashed #E00 !important;
    border-bottom: 1px dashed #E00 !important;
    border-left: 0 none !important;
    position: fixed !important;
    width: auto !important;
}

.firebugRuler{
    position: absolute !important;
}

.firebugRulerH {
    top: -15px !important;
    left: 0 !important;
    width: 100% !important;
    height: 14px !important;
    background: url("data:image/png,%89PNG%0D%0A%1A%0A%00%00%00%0DIHDR%00%00%13%88%00%00%00%0E%08%02%00%00%00L%25a%0A%00%00%00%04gAMA%00%00%D6%D8%D4OX2%00%00%00%19tEXtSoftware%00Adobe%20ImageReadyq%C9e%3C%00%00%04%F8IDATx%DA%EC%DD%D1n%E2%3A%00E%D1%80%F8%FF%EF%E2%AF2%95%D0D4%0E%C1%14%B0%8Fa-%E9%3E%CC%9C%87n%B9%81%A6W0%1C%A6i%9A%E7y%0As8%1CT%A9R%A5J%95*U%AAT%A9R%A5J%95*U%AAT%A9R%A5J%95*U%AAT%A9R%A5J%95*U%AAT%A9R%A5J%95*U%AAT%A9R%A5J%95*U%AAT%A9R%A5J%95*U%AATE9%FE%FCw%3E%9F%AF%2B%2F%BA%97%FDT%1D~K(%5C%9D%D5%EA%1B%5C%86%B5%A9%BDU%B5y%80%ED%AB*%03%FAV9%AB%E1%CEj%E7%82%EF%FB%18%BC%AEJ8%AB%FA'%D2%BEU9%D7U%ECc0%E1%A2r%5DynwVi%CFW%7F%BB%17%7Dy%EACU%CD%0E%F0%FA%3BX%FEbV%FEM%9B%2B%AD%BE%AA%E5%95v%AB%AA%E3E5%DCu%15rV9%07%B5%7F%B5w%FCm%BA%BE%AA%FBY%3D%14%F0%EE%C7%60%0EU%AAT%A9R%A5J%95*U%AAT%A9R%A5J%95*U%AAT%A9R%A5J%95*U%AAT%A9R%A5J%95*U%AAT%A9R%A5JU%88%D3%F5%1F%AE%DF%3B%1B%F2%3E%DAUCNa%F92%D02%AC%7Dm%F9%3A%D4%F2%8B6%AE*%BF%5C%C2Ym~9g5%D0Y%95%17%7C%C8c%B0%7C%18%26%9CU%CD%13i%F7%AA%90%B3Z%7D%95%B4%C7%60%E6E%B5%BC%05%B4%FBY%95U%9E%DB%FD%1C%FC%E0%9F%83%7F%BE%17%7DkjMU%E3%03%AC%7CWj%DF%83%9An%BCG%AE%F1%95%96yQ%0Dq%5Dy%00%3Et%B5'%FC6%5DS%95pV%95%01%81%FF'%07%00%00%00%00%00%00%00%00%00%F8x%C7%F0%BE%9COp%5D%C9%7C%AD%E7%E6%EBV%FB%1E%E0(%07%E5%AC%C6%3A%ABi%9C%8F%C6%0E9%AB%C0'%D2%8E%9F%F99%D0E%B5%99%14%F5%0D%CD%7F%24%C6%DEH%B8%E9rV%DFs%DB%D0%F7%00k%FE%1D%84%84%83J%B8%E3%BA%FB%EF%20%84%1C%D7%AD%B0%8E%D7U%C8Y%05%1E%D4t%EF%AD%95Q%BF8w%BF%E9%0A%BF%EB%03%00%00%00%00%00%00%00%00%00%B8vJ%8E%BB%F5%B1u%8Cx%80%E1o%5E%CA9%AB%CB%CB%8E%03%DF%1D%B7T%25%9C%D5(%EFJM8%AB%CC'%D2%B2*%A4s%E7c6%FB%3E%FA%A2%1E%80~%0E%3E%DA%10x%5D%95Uig%15u%15%ED%7C%14%B6%87%A1%3B%FCo8%A8%D8o%D3%ADO%01%EDx%83%1A~%1B%9FpP%A3%DC%C6'%9C%95gK%00%00%00%00%00%00%00%00%00%20%D9%C9%11%D0%C0%40%AF%3F%EE%EE%92%94%D6%16X%B5%BCMH%15%2F%BF%D4%A7%C87%F1%8E%F2%81%AE%AAvzr%DA2%ABV%17%7C%E63%83%E7I%DC%C6%0Bs%1B%EF6%1E%00%00%00%00%00%00%00%00%00%80cr%9CW%FF%7F%C6%01%0E%F1%CE%A5%84%B3%CA%BC%E0%CB%AA%84%CE%F9%BF)%EC%13%08WU%AE%AB%B1%AE%2BO%EC%8E%CBYe%FE%8CN%ABr%5Dy%60~%CFA%0D%F4%AE%D4%BE%C75%CA%EDVB%EA(%B7%F1%09g%E5%D9%12%00%00%00%00%00%00%00%00%00H%F6%EB%13S%E7y%5E%5E%FB%98%F0%22%D1%B2'%A7%F0%92%B1%BC%24z3%AC%7Dm%60%D5%92%B4%7CEUO%5E%F0%AA*%3BU%B9%AE%3E%A0j%94%07%A0%C7%A0%AB%FD%B5%3F%A0%F7%03T%3Dy%D7%F7%D6%D4%C0%AAU%D2%E6%DFt%3F%A8%CC%AA%F2%86%B9%D7%F5%1F%18%E6%01%F8%CC%D5%9E%F0%F3z%88%AA%90%EF%20%00%00%00%00%00%00%00%00%00%C0%A6%D3%EA%CFi%AFb%2C%7BB%0A%2B%C3%1A%D7%06V%D5%07%A8r%5D%3D%D9%A6%CAu%F5%25%CF%A2%99%97zNX%60%95%AB%5DUZ%D5%FBR%03%AB%1C%D4k%9F%3F%BB%5C%FF%81a%AE%AB'%7F%F3%EA%FE%F3z%94%AA%D8%DF%5B%01%00%00%00%00%00%00%00%00%00%8E%FB%F3%F2%B1%1B%8DWU%AAT%A9R%A5J%95*U%AAT%A9R%A5J%95*U%AAT%A9R%A5J%95*U%AAT%A9R%A5J%95*U%AAT%A9R%A5J%95*U%AAT%A9R%A5J%95*U%AAT%A9R%A5J%95*UiU%C7%BBe%E7%F3%B9%CB%AAJ%95*U%AAT%A9R%A5J%95*U%AAT%A9R%A5J%95*U%AAT%A9R%A5J%95*U%AAT%A9R%A5J%95*U%AAT%A9R%A5J%95*U%AAT%A9R%A5J%95*U%AAT%A9R%A5*%AAj%FD%C6%D4%5Eo%90%B5Z%ADV%AB%D5j%B5Z%ADV%AB%D5j%B5Z%ADV%AB%D5j%B5Z%ADV%AB%D5j%B5Z%ADV%AB%D5j%B5Z%ADV%AB%D5j%B5Z%ADV%AB%D5j%B5%86%AF%1B%9F%98%DA%EBm%BBV%AB%D5j%B5Z%ADV%AB%D5j%B5Z%ADV%AB%D5j%B5Z%ADV%AB%D5j%B5Z%ADV%AB%D5j%B5Z%ADV%AB%D5j%B5Z%ADV%AB%D5j%B5Z%AD%D6%E4%F58%01%00%00%00%00%00%00%00%00%00%00%00%00%00%40%85%7F%02%0C%008%C2%D0H%16j%8FX%00%00%00%00IEND%AEB%60%82") repeat-x !important;
    border-top: 1px solid #BBBBBB !important;
    border-right: 1px dashed #BBBBBB !important;
    border-bottom: 1px solid #000000 !important;
}

.firebugRulerV {
    top: 0 !important;
    left: -15px !important;
    width: 14px !important;
    height: 100% !important;
    background: url("data:image/png,%89PNG%0D%0A%1A%0A%00%00%00%0DIHDR%00%00%00%0E%00%00%13%88%08%02%00%00%00%0E%F5%CB%10%00%00%00%04gAMA%00%00%D6%D8%D4OX2%00%00%00%19tEXtSoftware%00Adobe%20ImageReadyq%C9e%3C%00%00%06~IDATx%DA%EC%DD%D1v%A20%14%40Qt%F1%FF%FF%E4%97%D9%07%3BT%19%92%DC%40(%90%EEy%9A5%CB%B6%E8%F6%9Ac%A4%CC0%84%FF%DC%9E%CF%E7%E3%F1%88%DE4%F8%5D%C7%9F%2F%BA%DD%5E%7FI%7D%F18%DDn%BA%C5%FB%DF%97%BFk%F2%10%FF%FD%B4%F2M%A7%FB%FD%FD%B3%22%07p%8F%3F%AE%E3%F4S%8A%8F%40%EEq%9D%BE8D%F0%0EY%A1Uq%B7%EA%1F%81%88V%E8X%3F%B4%CEy%B7h%D1%A2E%EBohU%FC%D9%AF2fO%8BBeD%BE%F7X%0C%97%A4%D6b7%2Ck%A5%12%E3%9B%60v%B7r%C7%1AI%8C%BD%2B%23r%00c0%B2v%9B%AD%CA%26%0C%1Ek%05A%FD%93%D0%2B%A1u%8B%16-%95q%5Ce%DCSO%8E%E4M%23%8B%F7%C2%FE%40%BB%BD%8C%FC%8A%B5V%EBu%40%F9%3B%A72%FA%AE%8C%D4%01%CC%B5%DA%13%9CB%AB%E2I%18%24%B0n%A9%0CZ*Ce%9C%A22%8E%D8NJ%1E%EB%FF%8F%AE%CAP%19*%C3%BAEKe%AC%D1%AAX%8C*%DEH%8F%C5W%A1e%AD%D4%B7%5C%5B%19%C5%DB%0D%EF%9F%19%1D%7B%5E%86%BD%0C%95%A12%AC%5B*%83%96%CAP%19%F62T%86%CAP%19*%83%96%CA%B8Xe%BC%FE)T%19%A1%17xg%7F%DA%CBP%19*%C3%BA%A52T%86%CAP%19%F62T%86%CA%B0n%A9%0CZ%1DV%C6%3D%F3%FCH%DE%B4%B8~%7F%5CZc%F1%D6%1F%AF%84%F9%0F6%E6%EBVt9%0E~%BEr%AF%23%B0%97%A12T%86%CAP%19%B4T%86%CA%B8Re%D8%CBP%19*%C3%BA%A52huX%19%AE%CA%E5%BC%0C%7B%19*CeX%B7h%A9%0C%95%E1%BC%0C%7B%19*CeX%B7T%06%AD%CB%5E%95%2B%BF.%8F%C5%97%D5%E4%7B%EE%82%D6%FB%CF-%9C%FD%B9%CF%3By%7B%19%F62T%86%CA%B0n%D1R%19*%A3%D3%CA%B0%97%A12T%86uKe%D0%EA%B02*%3F1%99%5DB%2B%A4%B5%F8%3A%7C%BA%2B%8Co%7D%5C%EDe%A8%0C%95a%DDR%19%B4T%C66%82fA%B2%ED%DA%9FC%FC%17GZ%06%C9%E1%B3%E5%2C%1A%9FoiB%EB%96%CA%A0%D5qe4%7B%7D%FD%85%F7%5B%ED_%E0s%07%F0k%951%ECr%0D%B5C%D7-g%D1%A8%0C%EB%96%CA%A0%A52T%C6)*%C3%5E%86%CAP%19%D6-%95A%EB*%95q%F8%BB%E3%F9%AB%F6%E21%ACZ%B7%22%B7%9B%3F%02%85%CB%A2%5B%B7%BA%5E%B7%9C%97%E1%BC%0C%EB%16-%95%A12z%AC%0C%BFc%A22T%86uKe%D0%EA%B02V%DD%AD%8A%2B%8CWhe%5E%AF%CF%F5%3B%26%CE%CBh%5C%19%CE%CB%B0%F3%A4%095%A1%CAP%19*Ce%A8%0C%3BO*Ce%A8%0C%95%A12%3A%AD%8C%0A%82%7B%F0v%1F%2FD%A9%5B%9F%EE%EA%26%AF%03%CA%DF9%7B%19*Ce%A8%0C%95%A12T%86%CA%B8Ze%D8%CBP%19*Ce%A8%0C%95%D1ae%EC%F7%89I%E1%B4%D7M%D7P%8BjU%5C%BB%3E%F2%20%D8%CBP%19*Ce%A8%0C%95%A12T%C6%D5*%C3%5E%86%CAP%19*Ce%B4O%07%7B%F0W%7Bw%1C%7C%1A%8C%B3%3B%D1%EE%AA%5C%D6-%EBV%83%80%5E%D0%CA%10%5CU%2BD%E07YU%86%CAP%19*%E3%9A%95%91%D9%A0%C8%AD%5B%EDv%9E%82%FFKOee%E4%8FUe%A8%0C%95%A12T%C6%1F%A9%8C%C8%3D%5B%A5%15%FD%14%22r%E7B%9F%17l%F8%BF%ED%EAf%2B%7F%CF%ECe%D8%CBP%19*Ce%A8%0C%95%E1%93~%7B%19%F62T%86%CAP%19*Ce%A8%0C%E7%13%DA%CBP%19*Ce%A8%0CZf%8B%16-Z%B4h%D1R%19f%8B%16-Z%B4h%D1R%19%B4%CC%16-Z%B4h%D1R%19%B4%CC%16-Z%B4h%D1%A2%A52%CC%16-Z%B4h%D1%A2%A52h%99-Z%B4h%D1%A2%A52h%99-Z%B4h%D1%A2EKe%98-Z%B4h%D1%A2EKe%D02%5B%B4h%D1%A2EKe%D02%5B%B4h%D1%A2E%8B%96%CA0%5B%B4h%D1%A2E%8B%96%CA%A0e%B6h%D1%A2E%8B%96%CA%A0e%B6h%D1%A2E%8B%16-%95a%B6h%D1%A2E%8B%16-%95A%CBl%D1%A2E%8B%16-%95A%CBl%D1%A2E%8B%16-Z*%C3l%D1%A2E%8B%16-Z*%83%96%D9%A2E%8B%16-Z*%83%96%D9%A2E%8B%16-Z%B4T%86%D9%A2E%8B%16-Z%B4T%06-%B3E%8B%16-Z%B4T%06-%B3E%8B%16-Z%B4h%A9%0C%B3E%8B%16-Z%B4h%A9%0CZf%8B%16-Z%B4h%A9%0CZf%8B%16-Z%B4h%D1R%19f%8B%16-Z%B4h%D1R%19%B4%CC%16-Z%B4h%D1R%19%B4%CC%16-Z%B4h%D1%A2%A52%CC%16-Z%B4h%D1%A2%A52h%99-Z%B4h%D1%A2%A52h%99-Z%B4h%D1%A2EKe%98-Z%B4h%D1%A2EKe%D02%5B%B4h%D1%A2EKe%D02%5B%B4h%D1%A2E%8B%96%CA0%5B%B4h%D1%A2E%8B%96%CA%A0e%B6h%D1%A2E%8B%96%CA%A0e%B6h%D1%A2E%8B%16-%95a%B6h%D1%A2E%8B%16-%95A%CBl%D1%A2E%8B%16-%95A%CBl%D1%A2E%8B%16-Z*%C3l%D1%A2E%8B%16-Z*%83%96%D9%A2E%8B%16-Z*%83%96%D9%A2E%8B%16-Z%B4T%86%D9%A2E%8B%16-Z%B4T%06-%B3E%8B%16-Z%B4T%06-%B3E%8B%16-Z%B4h%A9%0C%B3E%8B%16-Z%B4h%A9%0CZf%8B%16-Z%B4h%A9%0CZf%8B%16-Z%B4h%D1R%19f%8B%16-Z%B4h%D1R%19%B4%CC%16-Z%B4h%D1R%19%B4%CC%16-Z%B4h%D1%A2%A52%CC%16-Z%B4h%D1%A2%A52h%99-Z%B4h%D1%A2%A52h%99-Z%B4h%D1%A2EKe%98-Z%B4h%D1%A2EKe%D02%5B%B4h%D1%A2EKe%D02%5B%B4h%D1%A2E%8B%96%CA0%5B%B4h%D1%A2E%8B%96%CA%A0e%B6h%D1%A2E%8B%96%CA%A0e%B6h%D1%A2E%8B%16-%95a%B6h%D1%A2E%8B%16-%95A%CBl%D1%A2E%8B%16-%95A%CBl%D1%A2E%8B%16-Z*%C3l%D1%A2E%8B%16-Z*%83%96%D9%A2E%8B%16-Z*%83%96%D9%A2E%8B%16-Z%B4T%86%D9%A2E%8B%16-Z%B4T%06-%B3E%8B%16-Z%B4%AE%A4%F5%25%C0%00%DE%BF%5C'%0F%DA%B8q%00%00%00%00IEND%AEB%60%82") repeat-y !important;
    border-left: 1px solid #BBBBBB !important;
    border-right: 1px solid #000000 !important;
    border-bottom: 1px dashed #BBBBBB !important;
}

.overflowRulerX &gt; .firebugRulerV {
    left: 0 !important;
}

.overflowRulerY &gt; .firebugRulerH {
    top: 0 !important;
}

/* * * * * * * * * * * * * * * * * * * * * * * * * * * * * * * * * * * * * * * * * * * * * * * * */
.fbProxyElement {
    position: fixed !important;
    pointer-events: auto !important;
}</style></svg>